<svg width="16" height="16" viewBox="0 0 16 16" fill="none" xmlns="http://www.w3.org/2000/svg">
<g id="user-profile-add-01">
<path id="Icon (Stroke)" fill-rule="evenodd" clip-rule="evenodd" d="M7.19998 2.13332C6.16905 2.13332 5.33332 2.96905 5.33332 3.99998C5.33332 5.03092 6.16905 5.86665 7.19998 5.86665C8.23091 5.86665 9.06665 5.03091 9.06665 3.99998C9.06665 2.96905 8.23091 2.13332 7.19998 2.13332ZM4.26665 3.99998C4.26665 2.37995 5.57995 1.06665 7.19998 1.06665C8.82002 1.06665 10.1333 2.37995 10.1333 3.99998C10.1333 5.62002 8.82002 6.93332 7.19998 6.93332C5.57995 6.93332 4.26665 5.62002 4.26665 3.99998ZM12.6 8.06656C12.8945 8.06656 13.1333 8.30534 13.1333 8.59989V9.86665H14.4C14.6945 9.86665 14.9333 10.1054 14.9333 10.4C14.9333 10.6945 14.6945 10.9333 14.4 10.9333H13.1333V12.1999C13.1333 12.4944 12.8945 12.7332 12.6 12.7332C12.3054 12.7332 12.0666 12.4944 12.0666 12.1999V10.9333H10.8C10.5054 10.9333 10.2666 10.6945 10.2666 10.4C10.2666 10.1054 10.5054 9.86665 10.8 9.86665H12.0666V8.59989C12.0666 8.30534 12.3054 8.06656 12.6 8.06656ZM1.06692 11.9997C1.0671 10.3797 2.38035 9.06665 4.00025 9.06665H8.39998C8.69454 9.06665 8.93332 9.30543 8.93332 9.59998C8.93332 9.89454 8.69454 10.1333 8.39998 10.1333H4.00025C2.9694 10.1333 2.1337 10.9689 2.13359 11.9998L2.13332 14.4C2.13328 14.6946 1.89448 14.9333 1.59992 14.9333C1.30537 14.9333 1.06662 14.6945 1.06665 14.3999L1.06692 11.9997Z" fill="#191919" style="fill:#191919;fill:color(display-p3 0.0980 0.0980 0.0980);fill-opacity:1;"/>
</g>
</svg>
