<svg width="26" height="26" viewBox="0 0 26 26" fill="none" xmlns="http://www.w3.org/2000/svg">
<g id="calendar-06">
<path id="Icon (Stroke)" fill-rule="evenodd" clip-rule="evenodd" d="M18.9575 1.30005C19.4362 1.30005 19.8242 1.68807 19.8242 2.16672V3.37209C21.8032 3.77983 23.2773 5.55658 23.2774 7.66339L23.2779 19.3725C23.278 21.7772 21.358 23.7521 18.9582 23.7521H7.44816C5.04858 23.7521 3.12857 21.7775 3.12846 19.3729L3.12793 7.6638C3.12783 5.55687 4.6017 3.78004 6.58079 3.37229V2.16682C6.58079 1.68818 6.96881 1.30016 7.44746 1.30016C7.92611 1.30016 8.31413 1.68818 8.31413 2.16682V3.28437L18.0909 3.28419V2.16672C18.0909 1.68807 18.4789 1.30005 18.9575 1.30005ZM18.9575 5.01751L7.44748 5.01772C6.03296 5.01772 4.8612 6.18822 4.86126 7.66372L4.8618 19.3728C4.86186 20.8483 6.03375 22.0188 7.44816 22.0188H18.9582C20.3727 22.0188 21.5447 20.8481 21.5446 19.3726L21.5441 7.66347C21.544 6.18811 20.372 5.01751 18.9575 5.01751C18.9575 5.01751 18.9575 5.01751 18.9575 5.01751ZM7.07494 8.24906C7.07494 7.77041 7.46296 7.38239 7.94161 7.38239H18.9036C19.3822 7.38239 19.7703 7.77041 19.7703 8.24906C19.7703 8.7277 19.3822 9.11572 18.9036 9.11572H7.94161C7.46296 9.11572 7.07494 8.7277 7.07494 8.24906ZM11.2857 10.985C11.5811 11.1311 11.768 11.4322 11.768 11.7617V18.7873C11.768 19.2659 11.38 19.6539 10.9013 19.6539C10.4227 19.6539 10.0347 19.2659 10.0347 18.7873V13.5131L9.12503 14.2071C8.74449 14.4975 8.20064 14.4244 7.91031 14.0438C7.61997 13.6633 7.69309 13.1194 8.07362 12.8291L10.3756 11.0727C10.6376 10.8728 10.9904 10.8388 11.2857 10.985ZM17.6163 10.985C17.9116 11.1311 18.0986 11.4322 18.0986 11.7617V18.7873C18.0986 19.2659 17.7105 19.6539 17.2319 19.6539C16.7532 19.6539 16.3652 19.2659 16.3652 18.7873V13.5131L15.4556 14.2071C15.075 14.4975 14.5312 14.4244 14.2409 14.0438C13.9505 13.6633 14.0236 13.1194 14.4042 12.8291L16.7062 11.0727C16.9682 10.8728 17.3209 10.8388 17.6163 10.985Z" fill="#222222" style="fill:#222222;fill:color(display-p3 0.1333 0.1333 0.1333);fill-opacity:1;"/>
</g>
</svg>
