<svg width="24" height="25" viewBox="0 0 24 25" fill="none" xmlns="http://www.w3.org/2000/svg">
<path fill-rule="evenodd" clip-rule="evenodd" d="M8.18907 3.35198C8.33244 3.10621 8.59556 2.95508 8.8801 2.95508H15.1201C15.4046 2.95508 15.6678 3.10621 15.8111 3.35198L17.2596 5.83508H19.2001C20.9674 5.83508 22.4001 7.26777 22.4001 9.03508V18.8751C22.4001 20.6424 20.9674 22.0751 19.2001 22.0751H4.8001C3.03279 22.0751 1.6001 20.6424 1.6001 18.8751V9.03508C1.6001 7.26776 3.03279 5.83508 4.8001 5.83508H6.7406L8.18907 3.35198ZM9.33959 4.55508L7.89112 7.03818C7.74775 7.28395 7.48463 7.43508 7.2001 7.43508H4.8001C3.91644 7.43508 3.2001 8.15142 3.2001 9.03508V18.8751C3.2001 19.7587 3.91644 20.4751 4.8001 20.4751H19.2001C20.0837 20.4751 20.8001 19.7587 20.8001 18.8751V9.03508C20.8001 8.15142 20.0837 7.43508 19.2001 7.43508H16.8001C16.5156 7.43508 16.2524 7.28395 16.1091 7.03817L14.6606 4.55508H9.33959ZM12.0001 10.5551C10.4537 10.5551 9.2001 11.8087 9.2001 13.3551C9.2001 14.9015 10.4537 16.1551 12.0001 16.1551C13.5465 16.1551 14.8001 14.9015 14.8001 13.3551C14.8001 11.8087 13.5465 10.5551 12.0001 10.5551ZM7.6001 13.3551C7.6001 10.925 9.57004 8.95508 12.0001 8.95508C14.4301 8.95508 16.4001 10.925 16.4001 13.3551C16.4001 15.7851 14.4301 17.7551 12.0001 17.7551C9.57004 17.7551 7.6001 15.7851 7.6001 13.3551Z" fill="#C2C3C4" style="fill:#C2C3C4;fill:color(display-p3 0.7622 0.7662 0.7702);fill-opacity:1;"/>
</svg>
