<svg width="20" height="20" viewBox="0 0 20 20" fill="none" xmlns="http://www.w3.org/2000/svg">
<g id="Icon">
<path id="Subtract" fill-rule="evenodd" clip-rule="evenodd" d="M10.0001 18.3334C14.6025 18.3334 18.3334 14.6024 18.3334 10C18.3334 5.39765 14.6025 1.66669 10.0001 1.66669C5.39771 1.66669 1.66675 5.39765 1.66675 10C1.66675 14.6024 5.39771 18.3334 10.0001 18.3334ZM13.7793 7.93788C14.0212 7.69162 14.0176 7.2959 13.7714 7.05403C13.5251 6.81217 13.1294 6.81573 12.8875 7.062L8.75008 11.2747L7.11265 9.60745C6.87078 9.36118 6.47507 9.35762 6.22881 9.59949C5.98254 9.84136 5.97897 10.2371 6.22084 10.4833L8.30418 12.6045C8.42169 12.7242 8.58237 12.7916 8.75008 12.7916C8.91779 12.7916 9.07847 12.7242 9.19599 12.6045L13.7793 7.93788Z" fill="#222222" style="fill:#222222;fill:color(display-p3 0.1333 0.1333 0.1333);fill-opacity:1;"/>
</g>
</svg>
