<svg width="26" height="26" viewBox="0 0 26 26" fill="none" xmlns="http://www.w3.org/2000/svg">
<g id="&#8;contents">
<path id="Vector" d="M15.1667 2.16675H6.50004C5.9254 2.16675 5.3743 2.39502 4.96798 2.80135C4.56165 3.20768 4.33337 3.75878 4.33337 4.33341V21.6667C4.33337 22.2414 4.56165 22.7925 4.96798 23.1988C5.3743 23.6051 5.9254 23.8334 6.50004 23.8334H19.5C20.0747 23.8334 20.6258 23.6051 21.0321 23.1988C21.4384 22.7925 21.6667 22.2414 21.6667 21.6667V8.66675L15.1667 2.16675Z" stroke="#C2C3C4" style="stroke:#C2C3C4;stroke:color(display-p3 0.7622 0.7662 0.7702);stroke-opacity:1;" stroke-width="1.6" stroke-linecap="round" stroke-linejoin="round"/>
<path id="Vector_2" d="M15.1666 2.16675V8.66675H21.6666" stroke="#C2C3C4" style="stroke:#C2C3C4;stroke:color(display-p3 0.7622 0.7662 0.7702);stroke-opacity:1;" stroke-width="1.6" stroke-linecap="round" stroke-linejoin="round"/>
<path id="Vector_3" d="M17.3333 14.0833H8.66663" stroke="#C2C3C4" style="stroke:#C2C3C4;stroke:color(display-p3 0.7622 0.7662 0.7702);stroke-opacity:1;" stroke-width="1.6" stroke-linecap="round" stroke-linejoin="round"/>
<path id="Vector_4" d="M17.3333 18.4167H8.66663" stroke="#C2C3C4" style="stroke:#C2C3C4;stroke:color(display-p3 0.7622 0.7662 0.7702);stroke-opacity:1;" stroke-width="1.6" stroke-linecap="round" stroke-linejoin="round"/>
<path id="Vector_5" d="M10.8333 9.75H9.74996H8.66663" stroke="#C2C3C4" style="stroke:#C2C3C4;stroke:color(display-p3 0.7622 0.7662 0.7702);stroke-opacity:1;" stroke-width="1.6" stroke-linecap="round" stroke-linejoin="round"/>
</g>
</svg>
