<svg width="28" height="28" viewBox="0 0 28 28" fill="none" xmlns="http://www.w3.org/2000/svg">
<path d="M13.0522 3.89085C13.6385 2.70305 15.3323 2.70305 15.9186 3.89085L18.2295 8.57247C18.4621 9.04373 18.9115 9.37051 19.4315 9.44652L24.6019 10.2022C25.9124 10.3938 26.4347 12.0046 25.4859 12.9287L21.7472 16.5702C21.3702 16.9374 21.1981 17.4667 21.2871 17.9854L22.1691 23.128C22.393 24.4337 21.0224 25.4294 19.8499 24.8128L15.2293 22.3829C14.7636 22.1379 14.2072 22.1379 13.7415 22.3829L9.12091 24.8128C7.94836 25.4294 6.57773 24.4337 6.80169 23.128L7.6837 17.9854C7.77266 17.4667 7.60059 16.9374 7.22359 16.5702L3.48485 12.9287C2.53611 12.0046 3.05841 10.3938 4.36888 10.2022L9.53924 9.44652C10.0593 9.37051 10.5087 9.04372 10.7413 8.57247L13.0522 3.89085Z" fill="#E2E3E5" style="fill:#E2E3E5;fill:color(display-p3 0.8863 0.8902 0.8980);fill-opacity:1;"/>
</svg>
