<svg width="24" height="25" viewBox="0 0 24 25" fill="none" xmlns="http://www.w3.org/2000/svg">
<g id="star">
<path id="Vector" d="M11.1877 3.36539C11.6902 2.34728 13.1421 2.34728 13.6446 3.3654L15.6254 7.37821C15.8248 7.78214 16.21 8.06225 16.6557 8.1274L21.0874 8.77516C22.2107 8.93934 22.6584 10.3201 21.8452 11.1121L18.6405 14.2334C18.3174 14.5482 18.1699 15.0018 18.2462 15.4464L19.0022 19.8544C19.1941 20.9736 18.0193 21.827 17.0143 21.2985L13.0538 19.2157C12.6546 19.0058 12.1777 19.0058 11.7785 19.2157L7.81803 21.2985C6.81298 21.827 5.63816 20.9736 5.83012 19.8544L6.58614 15.4464C6.66239 15.0018 6.51489 14.5482 6.19175 14.2334L2.98712 11.1121C2.17392 10.3201 2.6216 8.93934 3.74486 8.77516L8.1766 8.1274C8.62232 8.06225 9.00754 7.78214 9.20692 7.37821L11.1877 3.36539Z" stroke="#222222" style="stroke:#222222;stroke:color(display-p3 0.1333 0.1333 0.1333);stroke-opacity:1;" stroke-width="0.942857" stroke-linecap="round" stroke-linejoin="round"/>
</g>
</svg>
