<svg width="15" height="12" viewBox="0 0 15 12" fill="none" xmlns="http://www.w3.org/2000/svg">
<g id="Group 427319922">
<path id="Ellipse 240" d="M8.82198 0.830078C9.55113 0.830078 10.2705 0.997811 10.9245 1.3203C11.5784 1.64279 12.1494 2.11139 12.5933 2.68986C13.0372 3.26832 13.342 3.94115 13.4843 4.65627C13.6265 5.3714 13.6023 6.10967 13.4136 6.81397C13.2249 7.51826 12.8767 8.1697 12.3959 8.7179C11.9152 9.26609 11.3148 9.69635 10.6411 9.97538C9.96747 10.2544 9.23867 10.3747 8.51108 10.327C7.78349 10.2794 7.07663 10.0649 6.44517 9.70036" stroke="#222222" style="stroke:#222222;stroke:color(display-p3 0.1333 0.1333 0.1333);stroke-opacity:1;" stroke-width="1.2" stroke-linecap="round"/>
<g id="Group 8735">
<path id="Vector 624" d="M3.27625 11.1293V0.0375977" stroke="#222222" style="stroke:#222222;stroke:color(display-p3 0.1333 0.1333 0.1333);stroke-opacity:1;" stroke-width="1.2"/>
<path id="Vector 625" d="M5.65306 0.0375977V3.60276C5.65306 4.2591 5.12099 4.79117 4.46465 4.79117V4.79117C3.80831 4.79117 3.27625 4.2591 3.27625 3.60276V0.0375977" stroke="#222222" style="stroke:#222222;stroke:color(display-p3 0.1333 0.1333 0.1333);stroke-opacity:1;" stroke-width="1.2"/>
<path id="Vector 626" d="M0.899433 0.0375977V3.60276C0.899433 4.2591 1.4315 4.79117 2.08784 4.79117V4.79117C2.74418 4.79117 3.27625 4.2591 3.27625 3.60276V0.0375977" stroke="#222222" style="stroke:#222222;stroke:color(display-p3 0.1333 0.1333 0.1333);stroke-opacity:1;" stroke-width="1.2"/>
</g>
</g>
</svg>
