<svg width="28" height="28" viewBox="0 0 28 28" fill="none" xmlns="http://www.w3.org/2000/svg">
<g id="star">
<path id="Vector" d="M13.0522 3.89085C13.6385 2.70305 15.3323 2.70305 15.9186 3.89085L18.2295 8.57247C18.4621 9.04373 18.9115 9.37051 19.4315 9.44652L24.6019 10.2022C25.9124 10.3938 26.4347 12.0046 25.4859 12.9287L21.7472 16.5702C21.3702 16.9374 21.1981 17.4667 21.2871 17.9854L22.1691 23.128C22.393 24.4337 21.0224 25.4294 19.8499 24.8128L15.2293 22.3829C14.7636 22.1379 14.2072 22.1379 13.7415 22.3829L9.12091 24.8128C7.94836 25.4294 6.57773 24.4337 6.80169 23.128L7.6837 17.9854C7.77266 17.4667 7.60059 16.9374 7.22359 16.5702L3.48485 12.9287C2.53611 12.0046 3.05841 10.3938 4.36888 10.2022L9.53924 9.44652C10.0593 9.37051 10.5087 9.04372 10.7413 8.57247L13.0522 3.89085Z" stroke="#222222" style="stroke:#222222;stroke:color(display-p3 0.1333 0.1333 0.1333);stroke-opacity:1;" stroke-width="1.1" stroke-linecap="round" stroke-linejoin="round"/>
<path id="Vector_2" d="M9.00013 24.5C9.00013 24.5 12.1301 22.9601 14.0001 22V3.25L13.0001 5C12.0649 6.84973 10.8911 9.05865 10.8911 9.05865C10.65 9.53544 10.039 9.9231 9.50012 10L4.50012 10.3854C3.14201 10.5792 3.0169 12.0651 4.00012 13L7.21825 16.3358C7.60895 16.7073 8.09233 17.4752 8.00013 18L7.00013 22.5C6.76804 23.8211 7.78495 25.1239 9.00013 24.5Z" fill="#222222" stroke="#222222" style="fill:#222222;fill:color(display-p3 0.1333 0.1333 0.1333);fill-opacity:1;stroke:#222222;stroke:color(display-p3 0.1333 0.1333 0.1333);stroke-opacity:1;" stroke-width="1.1" stroke-linecap="round" stroke-linejoin="round"/>
</g>
</svg>
