<svg width="18" height="18" viewBox="0 0 18 18" fill="none" xmlns="http://www.w3.org/2000/svg">
<g id="Group 427319903">
<path id="Union" fill-rule="evenodd" clip-rule="evenodd" d="M9.45 16.4867C13.2338 16.2628 16.2628 13.2338 16.4867 9.45H13.95C13.7015 9.45 13.5 9.24853 13.5 9C13.5 8.75147 13.7015 8.55 13.95 8.55L16.4867 8.55C16.2628 4.76625 13.2338 1.73719 9.45 1.51328V4.05C9.45 4.29853 9.24853 4.5 9 4.5C8.75147 4.5 8.55 4.29853 8.55 4.05L8.55 1.51328C4.76625 1.73719 1.73719 4.76625 1.51328 8.55H4.05C4.29853 8.55 4.5 8.75147 4.5 9C4.5 9.24853 4.29853 9.45 4.05 9.45H1.51328C1.73719 13.2338 4.76625 16.2628 8.55 16.4867V13.95C8.55 13.7015 8.75147 13.5 9 13.5C9.24853 13.5 9.45 13.7015 9.45 13.95V16.4867ZM9 18C13.9706 18 18 13.9706 18 9C18 4.02944 13.9706 0 9 0C4.02944 0 0 4.02944 0 9C0 13.9706 4.02944 18 9 18Z" fill="#222222" style="fill:#222222;fill:color(display-p3 0.1333 0.1333 0.1333);fill-opacity:1;"/>
<circle id="Ellipse 12" cx="8.99995" cy="8.99995" r="1.8" fill="#222222" style="fill:#222222;fill:color(display-p3 0.1333 0.1333 0.1333);fill-opacity:1;"/>
</g>
</svg>
