<svg width="20" height="20" viewBox="0 0 20 20" fill="none" xmlns="http://www.w3.org/2000/svg">
<g id="Map-pin">
<path id="Vector" d="M16.6666 8.48493C16.6666 13.788 9.99992 18.3334 9.99992 18.3334C9.99992 18.3334 3.33325 13.788 3.33325 8.48493C3.33325 6.67664 4.03563 4.9424 5.28587 3.66375C6.53612 2.38509 8.23181 1.66675 9.99992 1.66675C11.768 1.66675 13.4637 2.38509 14.714 3.66375C15.9642 4.9424 16.6666 6.67664 16.6666 8.48493Z" stroke="#222222" style="stroke:#222222;stroke:color(display-p3 0.1333 0.1333 0.1333);stroke-opacity:1;" stroke-width="1.5" stroke-linecap="round" stroke-linejoin="round"/>
<path id="Vector_2" d="M10 10.8333C11.3807 10.8333 12.5 9.71396 12.5 8.33325C12.5 6.95254 11.3807 5.83325 10 5.83325C8.61929 5.83325 7.5 6.95254 7.5 8.33325C7.5 9.71396 8.61929 10.8333 10 10.8333Z" stroke="#222222" style="stroke:#222222;stroke:color(display-p3 0.1333 0.1333 0.1333);stroke-opacity:1;" stroke-width="1.5" stroke-linecap="round" stroke-linejoin="round"/>
</g>
</svg>
