<svg width="16" height="16" viewBox="0 0 16 16" fill="none" xmlns="http://www.w3.org/2000/svg">
<g id="Map-pin">
<path id="Vector" d="M13.3333 6.78792C13.3333 11.0303 7.99996 14.6667 7.99996 14.6667C7.99996 14.6667 2.66663 11.0303 2.66663 6.78792C2.66663 5.34128 3.22853 3.9539 4.22872 2.93097C5.22892 1.90805 6.58547 1.33337 7.99996 1.33337C9.41445 1.33337 10.771 1.90805 11.7712 2.93097C12.7714 3.9539 13.3333 5.34128 13.3333 6.78792Z" stroke="#222222" style="stroke:#222222;stroke:color(display-p3 0.1333 0.1333 0.1333);stroke-opacity:1;" stroke-width="1.2" stroke-linecap="round" stroke-linejoin="round"/>
<path id="Vector_2" d="M8 8.66663C9.10457 8.66663 10 7.7712 10 6.66663C10 5.56206 9.10457 4.66663 8 4.66663C6.89543 4.66663 6 5.56206 6 6.66663C6 7.7712 6.89543 8.66663 8 8.66663Z" stroke="#222222" style="stroke:#222222;stroke:color(display-p3 0.1333 0.1333 0.1333);stroke-opacity:1;" stroke-width="1.2" stroke-linecap="round" stroke-linejoin="round"/>
</g>
</svg>
