<svg width="26" height="26" viewBox="0 0 26 26" fill="none" xmlns="http://www.w3.org/2000/svg">
<g id="map-pin">
<path id="Vector" d="M21.6673 11.0301C21.6673 17.9241 13.0007 23.8332 13.0007 23.8332C13.0007 23.8332 4.33398 17.9241 4.33398 11.0301C4.33398 8.67936 5.24708 6.42486 6.87239 4.7626C8.49771 3.10035 10.7021 2.1665 13.0007 2.1665C15.2992 2.1665 17.5036 3.10035 19.1289 4.7626C20.7542 6.42486 21.6673 8.67936 21.6673 11.0301Z" stroke="#222222" style="stroke:#222222;stroke:color(display-p3 0.1333 0.1333 0.1333);stroke-opacity:1;" stroke-width="1.6" stroke-linecap="round" stroke-linejoin="round"/>
<path id="Vector_2" d="M13 14.0833C14.7949 14.0833 16.25 12.6282 16.25 10.8333C16.25 9.03833 14.7949 7.58325 13 7.58325C11.2051 7.58325 9.75 9.03833 9.75 10.8333C9.75 12.6282 11.2051 14.0833 13 14.0833Z" stroke="#222222" style="stroke:#222222;stroke:color(display-p3 0.1333 0.1333 0.1333);stroke-opacity:1;" stroke-width="1.6" stroke-linecap="round" stroke-linejoin="round"/>
</g>
</svg>
