<svg width="26" height="26" viewBox="0 0 26 26" fill="none" xmlns="http://www.w3.org/2000/svg">
<path d="M13.0007 23.8332L12.55 24.4942C12.8218 24.6795 13.1795 24.6795 13.4513 24.4942L13.0007 23.8332ZM13.0007 23.8332C13.4513 24.4942 13.4515 24.494 13.4518 24.4938L13.4524 24.4934L13.4543 24.4921L13.4604 24.4879L13.4819 24.473C13.5003 24.4603 13.5266 24.4419 13.5604 24.4179C13.628 24.3701 13.7254 24.3001 13.8484 24.2093C14.0942 24.0277 14.4429 23.7622 14.86 23.4225C15.693 22.744 16.8057 21.7645 17.9209 20.5605C20.1207 18.1857 22.4673 14.792 22.4673 11.0301C22.4673 8.47291 21.4742 6.0169 19.7009 4.20331C17.927 2.3891 15.5172 1.3665 13.0007 1.3665C10.4841 1.3665 8.07428 2.3891 6.30039 4.20331C4.5271 6.0169 3.53398 8.47291 3.53398 11.0301C3.53398 14.792 5.8806 18.1857 8.08042 20.5605C9.19563 21.7645 10.3083 22.744 11.1413 23.4225C11.5584 23.7622 11.9071 24.0277 12.1529 24.2093C12.2759 24.3001 12.3733 24.3701 12.4409 24.4179C12.4747 24.4419 12.501 24.4603 12.5194 24.473L12.5409 24.4879L12.547 24.4921L12.5489 24.4934L12.5495 24.4938C12.5498 24.494 12.55 24.4942 13.0007 23.8332Z" fill="#191919" stroke="#191919" style="fill:#191919;fill:color(display-p3 0.0980 0.0980 0.0980);fill-opacity:1;stroke:#191919;stroke:color(display-p3 0.0980 0.0980 0.0980);stroke-opacity:1;" stroke-width="1.6" stroke-linecap="round" stroke-linejoin="round"/>
<path d="M13 14.0833C14.7949 14.0833 16.25 12.6282 16.25 10.8333C16.25 9.03833 14.7949 7.58325 13 7.58325C11.2051 7.58325 9.75 9.03833 9.75 10.8333C9.75 12.6282 11.2051 14.0833 13 14.0833Z" fill="white" stroke="white" style="fill:white;fill-opacity:1;stroke:white;stroke-opacity:1;" stroke-width="1.6" stroke-linecap="round" stroke-linejoin="round"/>
</svg>
