<svg width="4" height="14" viewBox="0 0 4 14" fill="none" xmlns="http://www.w3.org/2000/svg">
<g id="Group 427319932">
<path id="Vector" d="M1.75 7.75C2.16421 7.75 2.5 7.41421 2.5 7C2.5 6.58579 2.16421 6.25 1.75 6.25C1.33579 6.25 1 6.58579 1 7C1 7.41421 1.33579 7.75 1.75 7.75Z" stroke="#222222" style="stroke:#222222;stroke:color(display-p3 0.1333 0.1333 0.1333);stroke-opacity:1;" stroke-width="1.2" stroke-linecap="round" stroke-linejoin="round"/>
<path id="Vector_2" d="M1.75 2.5C2.16421 2.5 2.5 2.16421 2.5 1.75C2.5 1.33579 2.16421 1 1.75 1C1.33579 1 1 1.33579 1 1.75C1 2.16421 1.33579 2.5 1.75 2.5Z" stroke="#222222" style="stroke:#222222;stroke:color(display-p3 0.1333 0.1333 0.1333);stroke-opacity:1;" stroke-width="1.2" stroke-linecap="round" stroke-linejoin="round"/>
<path id="Vector_3" d="M1.75 13C2.16421 13 2.5 12.6642 2.5 12.25C2.5 11.8358 2.16421 11.5 1.75 11.5C1.33579 11.5 1 11.8358 1 12.25C1 12.6642 1.33579 13 1.75 13Z" stroke="#222222" style="stroke:#222222;stroke:color(display-p3 0.1333 0.1333 0.1333);stroke-opacity:1;" stroke-width="1.2" stroke-linecap="round" stroke-linejoin="round"/>
</g>
</svg>
