<svg width="20" height="21" viewBox="0 0 20 21" fill="none" xmlns="http://www.w3.org/2000/svg">
<path d="M9.75 11.125C10.1642 11.125 10.5 10.7892 10.5 10.375C10.5 9.96079 10.1642 9.625 9.75 9.625C9.33579 9.625 9 9.96079 9 10.375C9 10.7892 9.33579 11.125 9.75 11.125Z" stroke="#222222" style="stroke:#222222;stroke:color(display-p3 0.1333 0.1333 0.1333);stroke-opacity:1;" stroke-width="1.2" stroke-linecap="round" stroke-linejoin="round"/>
<path d="M9.75 5.875C10.1642 5.875 10.5 5.53921 10.5 5.125C10.5 4.71079 10.1642 4.375 9.75 4.375C9.33579 4.375 9 4.71079 9 5.125C9 5.53921 9.33579 5.875 9.75 5.875Z" stroke="#222222" style="stroke:#222222;stroke:color(display-p3 0.1333 0.1333 0.1333);stroke-opacity:1;" stroke-width="1.2" stroke-linecap="round" stroke-linejoin="round"/>
<path d="M9.75 16.375C10.1642 16.375 10.5 16.0392 10.5 15.625C10.5 15.2108 10.1642 14.875 9.75 14.875C9.33579 14.875 9 15.2108 9 15.625C9 16.0392 9.33579 16.375 9.75 16.375Z" stroke="#222222" style="stroke:#222222;stroke:color(display-p3 0.1333 0.1333 0.1333);stroke-opacity:1;" stroke-width="1.2" stroke-linecap="round" stroke-linejoin="round"/>
</svg>
