<svg width="26" height="26" viewBox="0 0 26 26" fill="none" xmlns="http://www.w3.org/2000/svg">
<g filter="url(#filter0_d_650_66257)">
<path d="M23 13C23 18.5228 18.5228 23 13 23C7.47715 23 3 18.5228 3 13C3 7.47715 7.47715 3 13 3C18.5228 3 23 7.47715 23 13Z" fill="#222222" style="fill:#222222;fill:color(display-p3 0.1333 0.1333 0.1333);fill-opacity:1;"/>
</g>
<g filter="url(#filter1_d_650_66257)">
<path fill-rule="evenodd" clip-rule="evenodd" d="M24 13C24 19.0751 19.0751 24 13 24C6.92487 24 2 19.0751 2 13C2 6.92487 6.92487 2 13 2C19.0751 2 24 6.92487 24 13ZM13 23C18.5228 23 23 18.5228 23 13C23 7.47715 18.5228 3 13 3C7.47715 3 3 7.47715 3 13C3 18.5228 7.47715 23 13 23Z" fill="white" style="fill:white;fill-opacity:1;"/>
</g>
<path fill-rule="evenodd" clip-rule="evenodd" d="M15.5858 10.7362C15.5858 10.448 15.8194 10.2144 16.1076 10.2144H16.5817C17.2231 10.2144 17.8382 10.4691 18.2917 10.9226C18.7452 11.3761 19 11.9912 19 12.6326C19 13.2739 18.7452 13.889 18.2917 14.3425C17.8382 14.796 17.2231 15.0508 16.5817 15.0508H16.1076C15.8194 15.0508 15.5858 14.8172 15.5858 14.529C15.5858 14.2408 15.8194 14.0072 16.1076 14.0072H16.5817C16.9463 14.0072 17.2959 13.8624 17.5537 13.6046C17.8115 13.3468 17.9563 12.9971 17.9563 12.6326C17.9563 12.268 17.8115 11.9184 17.5537 11.6606C17.2959 11.4028 16.9463 11.258 16.5817 11.258H16.1076C15.8194 11.258 15.5858 11.0244 15.5858 10.7362Z" fill="white" style="fill:white;fill-opacity:1;"/>
<path fill-rule="evenodd" clip-rule="evenodd" d="M8 10.7362C8 10.448 8.23363 10.2144 8.52182 10.2144H16.1075C16.3957 10.2144 16.6293 10.448 16.6293 10.7362V15.0031C16.6293 15.6445 16.3745 16.2595 15.921 16.713C15.4675 17.1666 14.8524 17.4213 14.211 17.4213H10.4182C9.77688 17.4213 9.16179 17.1666 8.70828 16.713C8.25478 16.2595 8 15.6445 8 15.0031V10.7362ZM9.04364 11.258V15.0031C9.04364 15.3677 9.18846 15.7173 9.44625 15.9751C9.70403 16.2329 10.0537 16.3777 10.4182 16.3777H14.211C14.5756 16.3777 14.9252 16.2329 15.183 15.9751C15.4408 15.7173 15.5856 15.3677 15.5856 15.0031V11.258H9.04364Z" fill="white" style="fill:white;fill-opacity:1;"/>
<path fill-rule="evenodd" clip-rule="evenodd" d="M10.4182 7C10.6487 7 10.8356 7.1869 10.8356 7.41746V8.83976C10.8356 9.07032 10.6487 9.25722 10.4182 9.25722C10.1876 9.25722 10.0007 9.07032 10.0007 8.83976V7.41746C10.0007 7.1869 10.1876 7 10.4182 7Z" fill="white" style="fill:white;fill-opacity:1;"/>
<path fill-rule="evenodd" clip-rule="evenodd" d="M12.3149 7C12.5455 7 12.7324 7.1869 12.7324 7.41746V8.83976C12.7324 9.07032 12.5455 9.25722 12.3149 9.25722C12.0844 9.25722 11.8975 9.07032 11.8975 8.83976V7.41746C11.8975 7.1869 12.0844 7 12.3149 7Z" fill="white" style="fill:white;fill-opacity:1;"/>
<path fill-rule="evenodd" clip-rule="evenodd" d="M14.2099 7C14.4405 7 14.6274 7.1869 14.6274 7.41746V8.83976C14.6274 9.07032 14.4405 9.25722 14.2099 9.25722C13.9794 9.25722 13.7925 9.07032 13.7925 8.83976V7.41746C13.7925 7.1869 13.9794 7 14.2099 7Z" fill="white" style="fill:white;fill-opacity:1;"/>
<defs>
<filter id="filter0_d_650_66257" x="1" y="1" width="24" height="24" filterUnits="userSpaceOnUse" color-interpolation-filters="sRGB">
<feFlood flood-opacity="0" result="BackgroundImageFix"/>
<feColorMatrix in="SourceAlpha" type="matrix" values="0 0 0 0 0 0 0 0 0 0 0 0 0 0 0 0 0 0 127 0" result="hardAlpha"/>
<feOffset/>
<feGaussianBlur stdDeviation="1"/>
<feComposite in2="hardAlpha" operator="out"/>
<feColorMatrix type="matrix" values="0 0 0 0 0 0 0 0 0 0 0 0 0 0 0 0 0 0 0.25 0"/>
<feBlend mode="normal" in2="BackgroundImageFix" result="effect1_dropShadow_650_66257"/>
<feBlend mode="normal" in="SourceGraphic" in2="effect1_dropShadow_650_66257" result="shape"/>
</filter>
<filter id="filter1_d_650_66257" x="0" y="0" width="26" height="26" filterUnits="userSpaceOnUse" color-interpolation-filters="sRGB">
<feFlood flood-opacity="0" result="BackgroundImageFix"/>
<feColorMatrix in="SourceAlpha" type="matrix" values="0 0 0 0 0 0 0 0 0 0 0 0 0 0 0 0 0 0 127 0" result="hardAlpha"/>
<feOffset/>
<feGaussianBlur stdDeviation="1"/>
<feComposite in2="hardAlpha" operator="out"/>
<feColorMatrix type="matrix" values="0 0 0 0 0 0 0 0 0 0 0 0 0 0 0 0 0 0 0.25 0"/>
<feBlend mode="normal" in2="BackgroundImageFix" result="effect1_dropShadow_650_66257"/>
<feBlend mode="normal" in="SourceGraphic" in2="effect1_dropShadow_650_66257" result="shape"/>
</filter>
</defs>
</svg>
