<svg width="24" height="24" viewBox="0 0 24 24" fill="none" xmlns="http://www.w3.org/2000/svg">
<g id="Component 3">
<path id="Icon" fill-rule="evenodd" clip-rule="evenodd" d="M13.7321 4.0601C13.2904 2.24657 10.7095 2.24657 10.2678 4.0601C10.2018 4.33261 10.0725 4.5857 9.89021 4.79877C9.70796 5.01185 9.47798 5.17888 9.21898 5.28629C8.95999 5.39369 8.67929 5.43843 8.39974 5.41686C8.12018 5.39529 7.84967 5.30803 7.61021 5.16216C6.01521 4.1903 4.19003 6.01545 5.16191 7.61043C5.78968 8.64042 5.23283 9.98429 4.06099 10.2691C2.24627 10.7097 2.24627 13.2917 4.06099 13.7311C4.33358 13.7971 4.58672 13.9266 4.7998 14.109C5.01287 14.2914 5.17986 14.5215 5.28716 14.7806C5.39447 15.0398 5.43905 15.3206 5.41729 15.6002C5.39552 15.8798 5.30802 16.1504 5.16191 16.3898C4.19003 17.9847 6.01521 19.8099 7.61021 18.838C7.84963 18.6919 8.12016 18.6044 8.39979 18.5827C8.67942 18.5609 8.96024 18.6055 9.21937 18.7128C9.47851 18.8201 9.70864 18.9871 9.89103 19.2001C10.0734 19.4132 10.2029 19.6663 10.2689 19.9389C10.7095 21.7536 13.2915 21.7536 13.731 19.9389C13.7972 19.6665 13.9268 19.4135 14.1093 19.2006C14.2917 18.9877 14.5218 18.8208 14.7808 18.7135C15.0399 18.6063 15.3206 18.5616 15.6002 18.5833C15.8797 18.6049 16.1502 18.6922 16.3897 18.838C17.9847 19.8099 19.8099 17.9847 18.838 16.3898C18.6921 16.1503 18.6049 15.8798 18.5832 15.6002C18.5616 15.3207 18.6062 15.04 18.7135 14.7809C18.8208 14.5219 18.9876 14.2918 19.2006 14.1094C19.4135 13.927 19.6665 13.7973 19.9389 13.7311C21.7536 13.2905 21.7536 10.7085 19.9389 10.2691C19.6663 10.2031 19.4132 10.0736 19.2001 9.8912C18.987 9.70882 18.82 9.47869 18.7127 9.21956C18.6054 8.96043 18.5609 8.67962 18.5826 8.39999C18.6044 8.12037 18.6919 7.84984 18.838 7.61043C19.8099 6.01545 17.9847 4.1903 16.3897 5.16216C16.1503 5.30827 15.8797 5.39577 15.6001 5.41753C15.3205 5.4393 15.0397 5.39472 14.7805 5.28741C14.5214 5.18011 14.2913 5.01313 14.1089 4.80005C13.9265 4.58698 13.797 4.33384 13.731 4.06126L13.7321 4.0601Z" stroke="#191919" style="stroke:#191919;stroke:color(display-p3 0.0980 0.0980 0.0980);stroke-opacity:1;" stroke-width="1.65333"/>
<circle id="Ellipse 245" cx="12" cy="12" r="3" stroke="#191919" style="stroke:#191919;stroke:color(display-p3 0.0980 0.0980 0.0980);stroke-opacity:1;" stroke-width="1.6"/>
</g>
</svg>
