<svg width="16" height="16" viewBox="0 0 16 16" fill="none" xmlns="http://www.w3.org/2000/svg">
<g id="share">
<path id="Icon (Stroke)" fill-rule="evenodd" clip-rule="evenodd" d="M7.66055 1.58542C7.86668 1.38852 8.19121 1.38852 8.39734 1.58542L11.5973 4.64219C11.8103 4.84565 11.818 5.18325 11.6146 5.39624C11.4111 5.60923 11.0735 5.61696 10.8605 5.4135L8.56227 3.21811L8.56227 9.97108C8.56227 10.2656 8.32349 10.5044 8.02894 10.5044C7.73439 10.5044 7.49561 10.2656 7.49561 9.97108V3.2181L5.19733 5.4135C4.98434 5.61696 4.64674 5.60923 4.44328 5.39624C4.23982 5.18325 4.24755 4.84565 4.46054 4.64219L7.66055 1.58542ZM2.40003 9.6132C2.69458 9.6132 2.93337 9.85198 2.93337 10.1465V12.6171C2.93337 12.8515 3.02575 13.0754 3.18878 13.2399C3.35166 13.4041 3.57163 13.4956 3.80003 13.4956H12.2C12.4284 13.4956 12.6484 13.4041 12.8113 13.2399C12.9743 13.0754 13.0667 12.8515 13.0667 12.6171V10.1465C13.0667 9.85198 13.3055 9.6132 13.6 9.6132C13.8946 9.6132 14.1334 9.85198 14.1334 10.1465V12.6171C14.1334 13.1316 13.9307 13.6258 13.5687 13.9909C13.2065 14.3562 12.7142 14.5622 12.2 14.5622H3.80003C3.28583 14.5622 2.7936 14.3562 2.43138 13.9909C2.06931 13.6258 1.8667 13.1316 1.8667 12.6171V10.1465C1.8667 9.85198 2.10548 9.6132 2.40003 9.6132Z" fill="#191919" style="fill:#191919;fill:color(display-p3 0.0980 0.0980 0.0980);fill-opacity:1;"/>
</g>
</svg>
