<svg width="16" height="16" viewBox="0 0 16 16" fill="none" xmlns="http://www.w3.org/2000/svg">
<g id="Star">
<path id="Vector" d="M7.19309 2.13497C7.52324 1.46612 8.47701 1.46612 8.80716 2.13497L10.1084 4.77118C10.2394 5.03654 10.4925 5.22056 10.7853 5.26336L13.6967 5.68891C14.4346 5.79676 14.7287 6.70382 14.1945 7.22417L12.0892 9.27471C11.8769 9.48147 11.78 9.77949 11.8301 10.0716L12.3268 12.9674C12.4529 13.7026 11.6811 14.2633 11.0209 13.9161L8.41903 12.5478C8.15678 12.4099 7.84346 12.4099 7.58122 12.5478L4.97939 13.9161C4.31913 14.2633 3.54733 13.7026 3.67344 12.9674L4.1701 10.0716C4.22019 9.77949 4.1233 9.48147 3.91101 9.27471L1.80573 7.22416C1.2715 6.70382 1.5656 5.79676 2.30353 5.68891L5.21495 5.26336C5.50777 5.22056 5.76084 5.03654 5.89182 4.77118L7.19309 2.13497Z" fill="#222222" style="fill:#222222;fill:color(display-p3 0.1333 0.1333 0.1333);fill-opacity:1;"/>
</g>
</svg>
