<svg width="18" height="19" viewBox="0 0 18 19" fill="none" xmlns="http://www.w3.org/2000/svg">
<g id="trash-2">
<path id="Vector" d="M2.25 4.875H3.75H15.75" stroke="#5F5F60" style="stroke:#5F5F60;stroke:color(display-p3 0.3725 0.3725 0.3765);stroke-opacity:1;" stroke-width="1.5" stroke-linecap="round" stroke-linejoin="round"/>
<path id="Vector_2" d="M14.25 4.875V15.375C14.25 15.7728 14.092 16.1544 13.8107 16.4357C13.5294 16.717 13.1478 16.875 12.75 16.875H5.25C4.85218 16.875 4.47064 16.717 4.18934 16.4357C3.90804 16.1544 3.75 15.7728 3.75 15.375V4.875M6 4.875V3.375C6 2.97718 6.15804 2.59564 6.43934 2.31434C6.72064 2.03304 7.10217 1.875 7.5 1.875H10.5C10.8978 1.875 11.2794 2.03304 11.5607 2.31434C11.842 2.59564 12 2.97718 12 3.375V4.875" stroke="#5F5F60" style="stroke:#5F5F60;stroke:color(display-p3 0.3725 0.3725 0.3765);stroke-opacity:1;" stroke-width="1.5" stroke-linecap="round" stroke-linejoin="round"/>
<path id="Vector_3" d="M7.5 8.625V13.125" stroke="#5F5F60" style="stroke:#5F5F60;stroke:color(display-p3 0.3725 0.3725 0.3765);stroke-opacity:1;" stroke-width="1.5" stroke-linecap="round" stroke-linejoin="round"/>
<path id="Vector_4" d="M10.5 8.625V13.125" stroke="#5F5F60" style="stroke:#5F5F60;stroke:color(display-p3 0.3725 0.3725 0.3765);stroke-opacity:1;" stroke-width="1.5" stroke-linecap="round" stroke-linejoin="round"/>
</g>
</svg>
