<svg width="26" height="26" viewBox="0 0 26 26" fill="none" xmlns="http://www.w3.org/2000/svg">
<circle cx="13" cy="13" r="11.2" fill="#191919" stroke="#191919" style="fill:#191919;fill:color(display-p3 0.0980 0.0980 0.0980);fill-opacity:1;stroke:#191919;stroke:color(display-p3 0.0980 0.0980 0.0980);stroke-opacity:1;" stroke-width="1.6"/>
<path fill-rule="evenodd" clip-rule="evenodd" d="M13.6975 9.69691C13.6975 9.31202 13.3855 9 13.0006 9C12.6157 9 12.3037 9.31202 12.3037 9.69691V12.303H9.69691C9.31202 12.303 9 12.615 9 12.9999C9 13.3848 9.31202 13.6969 9.69691 13.6969H12.3037V16.3031C12.3037 16.688 12.6157 17 13.0006 17C13.3855 17 13.6975 16.688 13.6975 16.3031V13.6969H16.3031C16.688 13.6969 17 13.3848 17 12.9999C17 12.615 16.688 12.303 16.3031 12.303H13.6975V9.69691Z" fill="white" style="fill:white;fill-opacity:1;"/>
</svg>
