<svg width="20" height="21" viewBox="0 0 20 21" fill="none" xmlns="http://www.w3.org/2000/svg">
<g id="Group 427319908">
<path id="Vector" d="M9.99844 20.3999C15.3004 20.3999 19.5984 15.9228 19.5984 10.3999C19.5984 4.87705 15.3004 0.399902 9.99844 0.399902C4.6965 0.399902 0.398438 4.87705 0.398438 10.3999C0.398438 15.9228 4.6965 20.3999 9.99844 20.3999Z" fill="#C2C3C4" style="fill:#C2C3C4;fill:color(display-p3 0.7622 0.7662 0.7702);fill-opacity:1;"/>
<g id="Group 427319926">
<g id="Group 427319927">
<g id="Group 427319928">
<g id="Group 427319929">
<path id="Vector (Stroke)" fill-rule="evenodd" clip-rule="evenodd" d="M13.5892 6.64593C13.9173 6.97397 13.9173 7.50583 13.5892 7.83387L7.82923 13.5939C7.50119 13.9219 6.96933 13.9219 6.64129 13.5939C6.31325 13.2658 6.31325 12.734 6.64129 12.4059L12.4013 6.64593C12.7293 6.31789 13.2612 6.31789 13.5892 6.64593Z" fill="white" style="fill:white;fill-opacity:1;"/>
<path id="Vector (Stroke)_2" fill-rule="evenodd" clip-rule="evenodd" d="M6.64129 6.64593C6.96933 6.31789 7.50119 6.31789 7.82923 6.64593L13.5892 12.4059C13.9173 12.734 13.9173 13.2658 13.5892 13.5939C13.2612 13.9219 12.7293 13.9219 12.4013 13.5939L6.64129 7.83387C6.31325 7.50583 6.31325 6.97397 6.64129 6.64593Z" fill="white" style="fill:white;fill-opacity:1;"/>
</g>
</g>
</g>
</g>
</g>
</svg>
