<svg width="25" height="24" viewBox="0 0 25 24" fill="none" xmlns="http://www.w3.org/2000/svg">
<g id="Component 1">
<path id="Icon (Stroke)" fill-rule="evenodd" clip-rule="evenodd" d="M8.60784 2.80881C8.74979 2.56547 9.01031 2.41583 9.29203 2.41583H15.4702C15.752 2.41583 16.0125 2.56547 16.1544 2.80881L17.5886 5.26732H19.5098C21.2597 5.26732 22.6782 6.68582 22.6782 8.43563V18.1782C22.6782 19.928 21.2597 21.3465 19.5098 21.3465H5.25242C3.50261 21.3465 2.08411 19.928 2.08411 18.1782V8.43563C2.08411 6.68582 3.50261 5.26732 5.25242 5.26732H7.17371L8.60784 2.80881ZM9.74697 3.99999L8.31284 6.4585C8.17089 6.70184 7.91038 6.85148 7.62866 6.85148H5.25242C4.37752 6.85148 3.66826 7.56073 3.66826 8.43563V18.1782C3.66826 19.0531 4.37752 19.7624 5.25242 19.7624H19.5098C20.3848 19.7624 21.094 19.0531 21.094 18.1782V8.43563C21.094 7.56073 20.3848 6.85148 19.5098 6.85148H17.1336C16.8519 6.85148 16.5914 6.70184 16.4494 6.4585L15.0153 3.99999H9.74697ZM12.3811 9.94059C10.85 9.94059 9.60886 11.1818 9.60886 12.7129C9.60886 14.2439 10.85 15.4851 12.3811 15.4851C13.9122 15.4851 15.1534 14.2439 15.1534 12.7129C15.1534 11.1818 13.9122 9.94059 12.3811 9.94059ZM8.0247 12.7129C8.0247 10.3069 9.97514 8.35643 12.3811 8.35643C14.7871 8.35643 16.7376 10.3069 16.7376 12.7129C16.7376 15.1189 14.7871 17.0693 12.3811 17.0693C9.97514 17.0693 8.0247 15.1189 8.0247 12.7129Z" fill="#C2C3C4" style="fill:#C2C3C4;fill:color(display-p3 0.7622 0.7662 0.7702);fill-opacity:1;"/>
</g>
</svg>
