<svg width="90" height="35" viewBox="0 0 90 35" fill="none" xmlns="http://www.w3.org/2000/svg">
<g id="pinup">
<path id="Vector" d="M70.7036 8.31619H75.0656V12.6073L74.2676 17.4658L75.0656 22.9271V34.2754H70.7036V8.31619ZM75.633 23.991H73.3988V10.9405H75.633L73.8243 17.4658C73.8243 15.3498 74.0962 13.5766 74.64 12.1462C75.1838 10.7041 75.9758 9.62243 77.016 8.90134C78.0681 8.18025 79.333 7.8197 80.8106 7.8197C82.4656 7.8197 83.9432 8.23935 85.2436 9.07865C86.5557 9.91795 87.5782 11.0705 88.3111 12.5363C89.0441 14.0022 89.4105 15.6453 89.4105 17.4658C89.4105 19.2744 89.0441 20.9175 88.3111 22.3952C87.5782 23.861 86.5557 25.0135 85.2436 25.8528C83.9432 26.6922 82.4656 27.1118 80.8106 27.1118C79.333 27.1118 78.0681 26.7513 77.016 26.0302C75.9758 25.2973 75.1838 24.2156 74.64 22.7853C74.0962 21.3549 73.8243 19.5817 73.8243 17.4658L75.633 23.991ZM79.9595 23.0867C80.9407 23.0867 81.8154 22.8503 82.5838 22.3774C83.364 21.8928 83.961 21.2249 84.3747 20.3738C84.8003 19.5108 85.013 18.5415 85.013 17.4658C85.013 16.3664 84.8003 15.3911 84.3747 14.54C83.961 13.6889 83.364 13.0269 82.5838 12.5541C81.8154 12.0812 80.9407 11.8448 79.9595 11.8448C79.002 11.8448 78.1391 12.0812 77.3707 12.5541C76.6023 13.0269 75.9994 13.6889 75.562 14.54C75.1365 15.3911 74.9237 16.3664 74.9237 17.4658C74.9237 18.5533 75.1365 19.5226 75.562 20.3738C75.9994 21.2249 76.6023 21.8928 77.3707 22.3774C78.1391 22.8503 79.002 23.0867 79.9595 23.0867Z" fill="white" style="fill:white;fill-opacity:1;"/>
<path id="Vector_2" d="M66.9969 26.6153H62.6349V8.31616H66.9969V26.6153ZM54.7975 18.5828C54.7975 20.025 55.1108 21.1362 55.7373 21.9164C56.3638 22.6966 57.2445 23.0867 58.3793 23.0867C59.1595 23.0867 59.8747 22.8975 60.5249 22.5193C61.175 22.141 61.6892 21.5558 62.0675 20.7638C62.4458 19.9718 62.6349 18.9907 62.6349 17.8204L63.1669 21.0298V23.9201H62.0675L63.1669 21.0298C63.1669 22.2356 62.9009 23.2935 62.369 24.2038C61.837 25.114 61.0982 25.8292 60.1525 26.3493C59.2186 26.8576 58.1429 27.1118 56.9253 27.1118C55.5659 27.1118 54.3956 26.7985 53.4144 26.172C52.4451 25.5455 51.7063 24.6471 51.198 23.4768C50.6897 22.3065 50.4355 20.9116 50.4355 19.2921V8.31616H54.7975V18.5828Z" fill="white" style="fill:white;fill-opacity:1;"/>
<path id="Vector_3" d="M30.1674 8.31619H34.5294V26.6153H30.1674V8.31619ZM42.3668 16.3487C42.3668 14.9065 42.0536 13.7953 41.4271 13.0151C40.8005 12.2349 39.9199 11.8448 38.785 11.8448C38.0048 11.8448 37.2897 12.0339 36.6395 12.4122C35.9893 12.7905 35.4751 13.3756 35.0968 14.1677C34.7186 14.9597 34.5294 15.9408 34.5294 17.1111L33.9975 13.9017V11.0114H35.0968L33.9975 13.9017C33.9975 12.6959 34.2634 11.6379 34.7954 10.7277C35.3273 9.81747 36.0603 9.10821 36.9941 8.5999C37.9398 8.07977 39.0215 7.8197 40.239 7.8197C41.5985 7.8197 42.7628 8.13296 43.7322 8.75948C44.7133 9.386 45.4581 10.2844 45.9664 11.4547C46.4747 12.625 46.7288 14.0199 46.7288 15.6394V26.6153H42.3668V16.3487Z" fill="white" style="fill:white;fill-opacity:1;"/>
<path id="Vector_4" d="M22.0988 8.31617H26.4608V26.6153H22.0988V8.31617ZM24.2798 5.24859C23.7833 5.24859 23.3341 5.13037 22.9322 4.89395C22.5303 4.65753 22.2111 4.34427 21.9747 3.95417C21.7382 3.56407 21.62 3.12078 21.62 2.62429C21.62 2.1278 21.7382 1.6786 21.9747 1.27668C22.2111 0.862943 22.5303 0.549683 22.9322 0.336902C23.3341 0.112301 23.7833 0 24.2798 0C24.7881 0 25.2432 0.112301 25.6451 0.336902C26.0589 0.549683 26.378 0.862943 26.6026 1.27668C26.8272 1.6786 26.9395 2.1278 26.9395 2.62429C26.9395 3.12078 26.8272 3.56407 26.6026 3.95417C26.378 4.34427 26.0589 4.65753 25.6451 4.89395C25.2432 5.13037 24.7881 5.24859 24.2798 5.24859Z" fill="white" style="fill:white;fill-opacity:1;"/>
<path id="Vector_5" d="M0.589539 8.31619H4.95154V12.6073L4.15361 17.4658L4.95154 22.9271V34.2754H0.589539V8.31619ZM5.51895 23.991H3.28476V10.9405H5.51895L3.71032 17.4658C3.71032 15.3498 3.98221 13.5766 4.52598 12.1462C5.06975 10.7041 5.86177 9.62243 6.90203 8.90134C7.95411 8.18025 9.21897 7.8197 10.6966 7.8197C12.3516 7.8197 13.8292 8.23935 15.1295 9.07865C16.4417 9.91795 17.4642 11.0705 18.1971 12.5363C18.93 14.0022 19.2965 15.6453 19.2965 17.4658C19.2965 19.2744 18.93 20.9175 18.1971 22.3952C17.4642 23.861 16.4417 25.0135 15.1295 25.8528C13.8292 26.6922 12.3516 27.1118 10.6966 27.1118C9.21897 27.1118 7.95411 26.7513 6.90203 26.0302C5.86177 25.2973 5.06975 24.2156 4.52598 22.7853C3.98221 21.3549 3.71032 19.5817 3.71032 17.4658L5.51895 23.991ZM9.84549 23.0867C10.8266 23.0867 11.7014 22.8503 12.4698 22.3774C13.25 21.8928 13.8469 21.2249 14.2607 20.3738C14.6862 19.5108 14.899 18.5415 14.899 17.4658C14.899 16.3664 14.6862 15.3911 14.2607 14.54C13.8469 13.6889 13.25 13.0269 12.4698 12.5541C11.7014 12.0812 10.8266 11.8448 9.84549 11.8448C8.88798 11.8448 8.02503 12.0812 7.25666 12.5541C6.48829 13.0269 5.88541 13.6889 5.44803 14.54C5.02247 15.3911 4.80968 16.3664 4.80968 17.4658C4.80968 18.5533 5.02247 19.5226 5.44803 20.3738C5.88541 21.2249 6.48829 21.8928 7.25666 22.3774C8.02503 22.8503 8.88798 23.0867 9.84549 23.0867Z" fill="white" style="fill:white;fill-opacity:1;"/>
</g>
</svg>
